<?xml version="1.0" encoding="UTF-8" standalone="no"?>
<svg
   xmlns:dc="http://purl.org/dc/elements/1.1/"
   xmlns:cc="http://creativecommons.org/ns#"
   xmlns:rdf="http://www.w3.org/1999/02/22-rdf-syntax-ns#"
   xmlns:svg="http://www.w3.org/2000/svg"
   xmlns="http://www.w3.org/2000/svg"
   xmlns:sodipodi="http://sodipodi.sourceforge.net/DTD/sodipodi-0.dtd"
   xmlns:inkscape="http://www.inkscape.org/namespaces/inkscape"
   sodipodi:docname="burger.svg"
   inkscape:version="1.0 (4035a4fb49, 2020-05-01)"
   id="svg8"
   version="1.1"
   viewBox="0 0 210 297"
   height="297mm"
   width="210mm">
  <defs
     id="defs2" />
  <sodipodi:namedview
     inkscape:window-maximized="1"
     inkscape:window-y="262"
     inkscape:window-x="1912"
     inkscape:window-height="1017"
     inkscape:window-width="1920"
     showgrid="false"
     inkscape:document-rotation="0"
     inkscape:current-layer="layer1"
     inkscape:document-units="mm"
     inkscape:cy="176.26028"
     inkscape:cx="178.88418"
     inkscape:zoom="0.7"
     inkscape:pageshadow="2"
     inkscape:pageopacity="0.0"
     borderopacity="1.0"
     bordercolor="#666666"
     pagecolor="#ffffff"
     id="base" />
  <metadata
     id="metadata5">
    <rdf:RDF>
      <cc:Work
         rdf:about="">
        <dc:format>image/svg+xml</dc:format>
        <dc:type
           rdf:resource="http://purl.org/dc/dcmitype/StillImage" />
        <dc:title></dc:title>
      </cc:Work>
    </rdf:RDF>
  </metadata>
  <g
     id="layer1"
     inkscape:groupmode="layer"
     inkscape:label="Ebene 1">
    <path
       inkscape:export-ydpi="194.81882"
       inkscape:export-xdpi="194.81882"
       transform="scale(0.26458333)"
       d="M 308.57227 445.9668 A 188.97638 188.97638 0 0 0 119.5957 634.94336 A 188.97638 188.97638 0 0 0 308.57227 823.91797 A 188.97638 188.97638 0 0 0 497.54688 634.94336 A 188.97638 188.97638 0 0 0 308.57227 445.9668 z M 211.42773 546.97656 L 405.71484 546.97656 L 405.71484 586.26172 L 211.42773 586.26172 L 211.42773 546.97656 z M 211.42773 615.29883 L 405.71484 615.29883 L 405.71484 654.58594 L 211.42773 654.58594 L 211.42773 615.29883 z M 211.42773 683.62305 L 405.71484 683.62305 L 405.71484 722.91016 L 211.42773 722.91016 L 211.42773 683.62305 z "
       style="fill:#ececec;stroke-width:1.61549;paint-order:stroke markers fill"
       id="path10" />
    <path
       inkscape:export-ydpi="194.81882"
       inkscape:export-xdpi="194.81882"
       transform="scale(0.26458333)"
       d="M 317.76172 65.310547 A 188.97638 188.97638 0 0 0 129.5957 254.82422 A 188.97638 188.97638 0 0 0 318.8418 443.26172 A 188.97638 188.97638 0 0 0 507.54688 254.28516 L 507.54492 253.20703 A 188.97638 188.97638 0 0 0 317.76172 65.310547 z M 263.76953 171.70508 L 318.57031 226.50781 L 373.37305 171.70508 L 401.15234 199.48438 L 346.34961 254.28516 L 401.15234 309.08789 L 373.37305 336.86523 L 318.57031 282.06445 L 263.76953 336.86523 L 235.99023 309.08789 L 290.79297 254.28516 L 235.99023 199.48438 L 263.76953 171.70508 z "
       style="fill:#ffffff;stroke-width:6.24499;paint-order:stroke markers fill"
       id="path46" />
  </g>
</svg>
